Coordinates
version=1
nRows=10
nColumns=40
inDegrees=yes

Units are S.I. units (second, meters, Newtons, ...)
If the header above contains a line with 'inDegrees', this indicates whether rotational values are in degrees (yes) or radians (no).

endheader
time	pelvis_tilt	pelvis_list	pelvis_rotation	pelvis_tx	pelvis_ty	pelvis_tz	hip_flexion_r	hip_adduction_r	hip_rotation_r	knee_angle_r	knee_angle_r_beta	ankle_angle_r	subtalar_angle_r	mtp_angle_r	hip_flexion_l	hip_adduction_l	hip_rotation_l	knee_angle_l	knee_angle_l_beta	ankle_angle_l	subtalar_angle_l	mtp_angle_l	lumbar_extension	lumbar_bending	lumbar_rotation	arm_flex_r	arm_add_r	arm_rot_r	elbow_flex_r	pro_sup_r	wrist_flex_r	wrist_dev_r	arm_flex_l	arm_add_l	arm_rot_l	elbow_flex_l	pro_sup_l	wrist_flex_l	wrist_dev_l
      2.77500000	    -35.26647827	      3.60675554	     -4.24874558	     -0.36839460	      0.77562915	     -1.14936388	     16.75290071	     -2.03770191	     16.18355108	     72.51760708	      1.26567101	     -8.49653662	      0.00000000	      0.00000000	     85.88231273	      2.20115765	     -3.15046718	     84.50220394	      1.47484168	     22.77093347	      0.00000000	      0.00000000	     -7.65398233	     -8.72297292	      7.69689795	     89.96726232	     -1.06187435	      8.27512785	     51.45085179	     74.29410109	      0.00000000	      0.00000000	     89.97498615	     -1.32776925	     12.90886460	     54.18624023	     62.18138776	      0.00000000	      0.00000000
      2.78000000	    -35.16952174	      3.74968418	     -4.21419982	     -0.36834035	      0.77575144	     -1.14959912	     16.67738390	     -2.17939756	     16.20516806	     72.48081027	      1.26502878	     -8.19826968	      0.00000000	      0.00000000	     85.78758363	      2.26420393	     -3.29995432	     84.47337484	      1.47433852	     22.46020056	      0.00000000	      0.00000000	     -7.77265697	     -8.86194494	      7.60723399	     89.96723813	     -0.98625944	      8.36654786	     51.43512607	     71.75203450	      0.00000000	      0.00000000	     89.97502547	     -1.32054457	     12.93677243	     54.20414983	     60.60187449	      0.00000000	      0.00000000
      2.78500000	    -35.18234024	      3.77157037	     -4.18544187	     -0.36841063	      0.77558530	     -1.14970487	     16.72089835	     -2.17621828	     16.18087461	     72.45427805	      1.26456571	     -7.90381674	      0.00000000	      0.00000000	     85.82619263	      2.29007942	     -3.29766481	     84.46650844	      1.47421868	     22.22687083	      0.00000000	      0.00000000	     -7.76859628	     -8.87057221	      7.53969018	     89.96719822	     -0.96263081	      8.55246284	     51.47067770	     69.09049977	      0.00000000	      0.00000000	     89.97503831	     -1.34585631	     13.00287488	     54.25231479	     58.98100382	      0.00000000	      0.00000000
      2.79000000	    -35.17080856	      3.78264911	     -4.19385887	     -0.36838371	      0.77561129	     -1.14965754	     16.81536120	     -2.14327468	     16.17237798	     72.50277050	      1.26541206	     -8.39744482	      0.00000000	      0.00000000	     85.79436623	      2.16538416	     -3.46202509	     84.49584148	      1.47473064	     22.62298261	      0.00000000	      0.00000000	     -7.80834666	     -8.89985618	      7.52176806	     89.96721849	     -1.07391396	      7.57363812	     51.30719418	     80.61444114	      0.00000000	      0.00000000	     89.97501641	     -1.41079487	     12.81761544	     54.19690278	     62.84223114	      0.00000000	      0.00000000
      2.79500000	    -35.21392825	      3.75349881	     -4.16307638	     -0.36847039	      0.77549603	     -1.14974346	     16.90122110	     -2.06774482	     16.18837051	     72.50357501	      1.26542610	     -8.36003561	      0.00000000	      0.00000000	     85.84047705	      2.14513024	     -3.47170441	     84.50319409	      1.47485897	     22.62704282	      0.00000000	      0.00000000	     -7.77588408	     -8.86551815	      7.43798534	     89.96720614	     -1.08409607	      7.92378096	     51.33311915	     77.37529148	      0.00000000	      0.00000000	     89.97502488	     -1.45893587	     12.93104341	     54.24676291	     61.37096900	      0.00000000	      0.00000000
      2.80000000	    -35.10045495	      3.88436495	     -4.12716547	     -0.36837249	      0.77567765	     -1.14991638	     16.82331091	     -2.19454273	     16.21674049	     72.48929854	      1.26517693	     -8.14134547	      0.00000000	      0.00000000	     85.72321360	      2.17152852	     -3.66678357	     84.47679704	      1.47439825	     22.37795604	      0.00000000	      0.00000000	     -7.91708692	     -9.00407221	      7.35924623	     89.96721753	     -1.06557477	      8.11336381	     51.37287078	     74.54223191	      0.00000000	      0.00000000	     89.97505604	     -1.43052766	     12.97384579	     54.29083614	     59.92367652	      0.00000000	      0.00000000
      2.80500000	    -35.04742550	      3.87812918	     -4.04448713	     -0.36824390	      0.77572225	     -1.15011171	     16.80400297	     -2.15373406	     16.21256323	     72.45221593	      1.26452972	     -8.35187236	      0.00000000	      0.00000000	     85.63083628	      2.22156229	     -3.71446022	     84.45833746	      1.47407607	     22.69038975	      0.00000000	      0.00000000	     -8.00546093	     -8.98423475	      7.23484220	     89.96708373	     -1.10507411	      8.45600821	     51.50701661	     71.87067017	      0.00000000	      0.00000000	     89.97500151	     -1.51768847	     13.13336349	     54.41315782	     58.38978720	      0.00000000	      0.00000000
      2.81000000	    -35.00847692	      3.92869690	     -3.99442053	     -0.36823029	      0.77571700	     -1.15023884	     16.81021716	     -2.23647187	     16.08827612	     72.46211558	      1.26470250	     -8.01651022	      0.00000000	      0.00000000	     85.61686800	      2.23670284	     -3.79908528	     84.48225649	      1.47449354	     22.36464166	      0.00000000	      0.00000000	     -8.06403377	     -9.02618573	      7.11583669	     89.96708885	     -1.04248017	      8.58015147	     51.50519815	     69.71473320	      0.00000000	      0.00000000	     89.97503933	     -1.50146681	     13.12683337	     54.39519553	     57.21127890	      0.00000000	      0.00000000
      2.81500000	    -35.03325704	      3.98119152	     -3.98902893	     -0.36818648	      0.77562891	     -1.15027574	     16.89073992	     -2.22537584	     16.15085785	     72.47308471	      1.26489395	     -8.20748875	      0.00000000	      0.00000000	     85.63365567	      2.17578119	     -3.94110999	     84.48813547	      1.47459614	     22.53987653	      0.00000000	      0.00000000	     -8.04322088	     -9.09177540	      7.04079020	     89.96711777	     -1.06022283	      7.63623120	     51.28975955	     80.57779992	      0.00000000	      0.00000000	     89.97501819	     -1.62900977	     12.87581253	     54.29932321	     61.77214510	      0.00000000	      0.00000000
      2.82000000	    -34.99547116	      4.02678984	     -3.90078977	     -0.36811983	      0.77564762	     -1.15048571	     16.89047103	     -2.29733026	     16.06325712	     72.46945286	      1.26483056	     -8.30555878	      0.00000000	      0.00000000	     85.59406904	      2.25964328	     -4.00754938	     84.48401639	      1.47452425	     22.51879574	      0.00000000	      0.00000000	     -8.09219429	     -9.15017969	      6.90099776	     89.96711634	     -1.10128013	      7.94154815	     51.29903504	     77.39173333	      0.00000000	      0.00000000	     89.97501153	     -1.61958637	     12.98317191	     54.30364827	     60.46298667	      0.00000000	      0.00000000
